<?xml version="1.0" encoding="UTF-8"?>
<svg xmlns="http://www.w3.org/2000/svg" id="Layer_1" data-name="Layer 1" viewBox="0 0 24 24">
  <path d="m4.628,3.813l2.519-2.519c.195-.195.512-.195.707,0s.195.512,0,.707l-2.519,2.519c-.321.322-.74.483-1.159.483-.403,0-.807-.149-1.126-.449l-.893-.843c-.201-.189-.21-.506-.021-.707.188-.201.505-.209.706-.021l.893.842c.255.24.646.234.893-.013Zm-1.628,16.688v1c0,1.472,1.028,2.5,2.5,2.5h8c1.379,0,2.5-1.122,2.5-2.5v-.5s.986,0,.986,0c2.113,0,3.965-1.5,4.402-3.566l.517-2.434h.549c1.134,0,1.546-.87,1.546-1.455,0-1.283-2.852-7.446-4.237-9.159C17.586,1.479,14.09-.162,10.477.013c-.276.013-.489.248-.476.523.013.275.253.503.522.476,3.327-.162,6.462,1.334,8.45,3.989,1.419,1.754,4.026,7.679,4.026,8.545-.007.203-.107.455-.546.455h-.956c-.236,0-.438.165-.487.396l-.601,2.83c-.341,1.607-1.78,2.774-3.424,2.774h-1.486c-.276,0-.5.224-.5.5v1c0,.827-.673,1.5-1.5,1.5H5.5c-.692,0-1.5-.393-1.5-1.5v-1c0-.276-.224-.5-.5-.5s-.5.224-.5.5ZM7.5,4c-.276,0-.5.224-.5.5v1.5c0,.551-.448,1-1,1H2c-.552,0-1-.449-1-1V2c0-.551.448-1,1-1h3c.276,0,.5-.224.5-.5S5.276,0,5,0H2C.897,0,0,.897,0,2v4C0,7.103.897,8,2,8h4c1.103,0,2-.897,2-2v-1.5c0-.276-.224-.5-.5-.5ZM2,10h4c1.103,0,2,.897,2,2v4c0,1.103-.897,2-2,2H2C.897,18,0,17.103,0,16v-4c0-1.103.897-2,2-2Zm-1,6c0,.551.448,1,1,1h4c.552,0,1-.449,1-1v-4c0-.551-.448-1-1-1H2c-.552,0-1,.449-1,1v4Z"/>
</svg>
